<?xml version="1.0" standalone="no"?>
<!DOCTYPE svg PUBLIC "-//W3C//DTD SVG 20010904//EN"
 "http://www.w3.org/TR/2001/REC-SVG-20010904/DTD/svg10.dtd">
<svg version="1.0" xmlns="http://www.w3.org/2000/svg"
 width="256.000000pt" height="256.000000pt" viewBox="0 0 256.000000 256.000000"
 preserveAspectRatio="xMidYMid meet">
<metadata>
Created by potrace 1.11, written by Peter Selinger 2001-2013
</metadata>
<g transform="translate(0.000000,256.000000) scale(0.100000,-0.100000)"
fill="#000000" stroke="none">
<path d="M1035 2218 c-27 -15 -35 -28 -35 -60 0 -16 9 -34 24 -46 l24 -19 -71
-17 c-133 -31 -247 -96 -247 -142 0 -15 6 -24 15 -24 23 0 22 -391 0 -410 -13
-11 -15 -54 -13 -308 l3 -296 30 -8 c72 -20 513 -31 758 -20 133 7 256 16 272
20 l30 8 3 296 c2 254 0 297 -13 308 -22 19 -23 410 0 410 9 0 15 9 15 24 0
46 -114 111 -247 142 l-71 17 24 19 c61 49 -6 147 -71 104 -34 -22 -42 -60
-20 -93 17 -26 17 -26 -6 -20 -13 4 -34 7 -46 7 -16 0 -20 5 -16 19 9 34 -23
51 -97 51 -75 0 -106 -16 -95 -51 5 -15 1 -19 -17 -19 -13 0 -34 -3 -47 -7
-24 -6 -24 -6 -8 18 23 33 21 56 -8 84 -27 28 -40 30 -70 13z m193 -360 c8 -8
12 -55 12 -145 0 -121 -2 -133 -19 -143 -12 -6 -93 -10 -194 -10 -150 0 -176
2 -188 17 -22 26 -26 237 -5 268 l16 25 183 0 c129 0 187 -4 195 -12z m493 -5
c10 -12 14 -50 14 -140 0 -112 -2 -126 -19 -139 -15 -11 -59 -14 -191 -14
-132 0 -176 3 -191 14 -17 13 -19 27 -19 139 0 90 4 128 14 140 12 15 38 17
196 17 158 0 184 -2 196 -17z m-396 -427 c67 -28 87 -125 36 -176 -51 -52
-111 -52 -162 0 -51 50 -32 147 34 175 41 18 50 18 92 1z"/>
<path d="M730 824 c0 -11 16 -93 36 -184 25 -113 42 -170 55 -181 17 -16 158
-59 191 -59 11 0 21 24 37 88 42 171 44 172 231 172 187 0 189 -1 231 -172 16
-64 26 -88 37 -88 33 0 174 43 191 59 12 11 30 70 55 181 46 211 47 204 -5
196 -202 -32 -801 -32 -1015 0 -39 5 -44 4 -44 -12z"/>
<path d="M1143 602 c-16 -10 -76 -238 -69 -258 8 -21 404 -21 412 0 7 20 -53
248 -69 258 -6 4 -68 8 -137 8 -69 0 -131 -4 -137 -8z"/>
</g>
</svg>
